<svg width="94" height="27" viewBox="0 0 94 27" fill="none" xmlns="http://www.w3.org/2000/svg">
<path d="M93.4778 23.886C93.4778 25.3249 92.2811 26.4904 90.801 26.4904H3.20249C1.72307 26.4904 0.522217 25.3249 0.522217 23.886V3.11705C0.522217 1.67886 1.72307 0.509277 3.20249 0.509277H90.8003C92.2811 0.509277 93.4771 1.67886 93.4771 3.11705L93.4778 23.886Z" fill="black"/>
<path d="M90.5185 0.540844C92.1304 0.540844 93.4421 1.81238 93.4421 3.375V23.625C93.4421 25.1876 92.1304 26.4592 90.5185 26.4592H3.48148C1.86956 26.4592 0.557907 25.1876 0.557907 23.625V3.375C0.557907 1.81238 1.86956 0.540844 3.48148 0.540844H90.5185ZM90.5185 1.42693e-06H3.48148C1.56754 1.42693e-06 0 1.5196 0 3.375V23.625C0 25.4804 1.56754 27 3.48148 27H90.5185C92.4325 27 94 25.4804 94 23.625V3.375C94 1.5196 92.4325 1.42693e-06 90.5185 1.42693e-06Z" fill="#A6A6A6"/>
<path d="M20.978 13.354C20.9578 11.1785 22.8156 10.1201 22.9005 10.0708C21.8484 8.58379 20.2177 8.38061 19.6446 8.36441C18.275 8.22469 16.9465 9.15889 16.2488 9.15889C15.5372 9.15889 14.4628 8.37791 13.3049 8.40086C11.8148 8.42314 10.4208 9.25946 9.65626 10.5582C8.07846 13.2062 9.2552 17.0976 10.7669 19.238C11.523 20.2863 12.4066 21.4567 13.5632 21.4155C14.6947 21.3703 15.1173 20.7162 16.4828 20.7162C17.8357 20.7162 18.2325 21.4155 19.4121 21.3892C20.6264 21.3703 21.3909 20.3362 22.1207 19.2785C22.9945 18.077 23.3454 16.8937 23.3594 16.833C23.3308 16.8235 21.001 15.9615 20.978 13.354Z" fill="white"/>
<path d="M18.7499 6.95636C19.3585 6.21859 19.7748 5.21486 19.6593 4.19629C18.7784 4.23409 17.6769 4.78691 17.0426 5.50849C16.4814 6.14434 15.98 7.18654 16.1095 8.16664C17.099 8.23819 18.1149 7.68266 18.7499 6.95636Z" fill="white"/>
<path d="M37.3528 21.2651H35.7715L34.9053 18.6266H31.8945L31.0694 21.2651H29.5299L32.5128 12.2822H34.3552L37.3528 21.2651ZM34.6442 17.5196L33.8609 15.1739C33.778 14.9343 33.6227 14.37 33.3937 13.4817H33.3658C33.2746 13.8638 33.1277 14.4281 32.9257 15.1739L32.1563 17.5196H34.6442V17.5196Z" fill="white"/>
<path d="M45.0238 17.9472C45.0238 19.0488 44.7168 19.9196 44.1026 20.5588C43.5526 21.1278 42.8695 21.412 42.0541 21.412C41.174 21.412 40.5418 21.1056 40.1567 20.4927H40.1289V23.9048H38.6444V16.9206C38.6444 16.228 38.6256 15.5172 38.5894 14.7882H39.8949L39.9778 15.8149H40.0056C40.5007 15.0414 41.252 14.6553 42.2602 14.6553C43.0484 14.6553 43.7064 14.957 44.2328 15.5611C44.7606 16.1659 45.0238 16.9611 45.0238 17.9472ZM43.5115 17.9999C43.5115 17.3694 43.3653 16.8497 43.0714 16.4406C42.7504 16.014 42.3194 15.8007 41.7791 15.8007C41.4128 15.8007 41.08 15.9195 40.7827 16.1538C40.4847 16.39 40.2897 16.6985 40.1985 17.0805C40.1525 17.2587 40.1296 17.4045 40.1296 17.5193V18.5993C40.1296 19.0704 40.2786 19.468 40.5766 19.7927C40.8746 20.1174 41.2617 20.2794 41.738 20.2794C42.2971 20.2794 42.7323 20.0701 43.0436 19.653C43.3555 19.2351 43.5115 18.6843 43.5115 17.9999Z" fill="white"/>
<path d="M52.7089 17.9472C52.7089 19.0488 52.4019 19.9196 51.787 20.5588C51.2377 21.1278 50.5546 21.412 49.7392 21.412C48.8591 21.412 48.2269 21.1056 47.8425 20.4927H47.8147V23.9048H46.3302V16.9206C46.3302 16.228 46.3114 15.5172 46.2751 14.7882H47.5807L47.6636 15.8149H47.6914C48.1858 15.0414 48.9371 14.6553 49.946 14.6553C50.7335 14.6553 51.3915 14.957 51.9193 15.5611C52.445 16.1659 52.7089 16.9611 52.7089 17.9472ZM51.1966 17.9999C51.1966 17.3694 51.0496 16.8497 50.7558 16.4406C50.4348 16.014 50.0052 15.8007 49.4642 15.8007C49.0972 15.8007 48.7651 15.9195 48.4671 16.1538C48.1691 16.39 47.9748 16.6985 47.8836 17.0805C47.8383 17.2587 47.8147 17.4045 47.8147 17.5193V18.5993C47.8147 19.0704 47.9637 19.468 48.2603 19.7927C48.5583 20.1167 48.9454 20.2794 49.4231 20.2794C49.9822 20.2794 50.4174 20.0701 50.7287 19.653C51.0406 19.2351 51.1966 18.6843 51.1966 17.9999Z" fill="white"/>
<path d="M61.3012 18.7463C61.3012 19.5104 61.0276 20.1321 60.4782 20.612C59.8745 21.1365 59.0341 21.3984 57.9541 21.3984C56.957 21.3984 56.1577 21.2121 55.5526 20.8388L55.8966 19.6393C56.5483 20.0214 57.2634 20.2131 58.0426 20.2131C58.6017 20.2131 59.0369 20.0902 59.3495 19.8459C59.6608 19.6015 59.816 19.2735 59.816 18.8644C59.816 18.4999 59.6879 18.1928 59.431 17.9437C59.1754 17.6947 58.7486 17.4631 58.1526 17.2492C56.5302 16.6626 55.7197 15.8033 55.7197 14.6734C55.7197 13.9349 56.0038 13.3294 56.5727 12.8583C57.1395 12.3865 57.8956 12.1509 58.8412 12.1509C59.6844 12.1509 60.3849 12.2933 60.944 12.5775L60.5729 13.7506C60.0507 13.4752 59.4602 13.3375 58.7994 13.3375C58.2772 13.3375 57.8692 13.4624 57.5767 13.7108C57.3296 13.9329 57.2056 14.2036 57.2056 14.5242C57.2056 14.8792 57.347 15.1729 57.6311 15.4037C57.8782 15.617 58.3274 15.8479 58.9791 16.0969C59.7763 16.4081 60.3619 16.7719 60.7386 17.1891C61.1139 17.6049 61.3012 18.1253 61.3012 18.7463Z" fill="white"/>
<path d="M66.2094 15.8678H64.5731V19.0126C64.5731 19.8125 64.8614 20.2121 65.4393 20.2121C65.7046 20.2121 65.9246 20.1898 66.0987 20.1452L66.1398 21.2381C65.8473 21.344 65.4623 21.3974 64.9853 21.3974C64.399 21.3974 63.9409 21.2239 63.6101 20.8776C63.2808 20.5307 63.1151 19.9488 63.1151 19.1314V15.8664H62.1403V14.7864H63.1151V13.6004L64.5731 13.1738V14.7864H66.2094V15.8678Z" fill="white"/>
<path d="M73.5922 17.9734C73.5922 18.969 73.2984 19.7864 72.7121 20.4257C72.0973 21.0838 71.2812 21.4118 70.2639 21.4118C69.2835 21.4118 68.503 21.0966 67.9209 20.4662C67.3388 19.8357 67.0477 19.0399 67.0477 18.0807C67.0477 17.077 67.3471 16.2548 67.948 15.6156C68.5476 14.9757 69.3566 14.6558 70.3739 14.6558C71.3543 14.6558 72.1432 14.971 72.7386 15.6021C73.3081 16.2143 73.5922 17.0048 73.5922 17.9734ZM72.052 18.02C72.052 17.4226 71.9204 16.9103 71.6537 16.483C71.3425 15.9659 70.8975 15.7081 70.321 15.7081C69.7243 15.7081 69.271 15.9666 68.9598 16.483C68.6931 16.9109 68.5615 17.4314 68.5615 18.047C68.5615 18.6443 68.6931 19.1567 68.9598 19.5833C69.2808 20.1003 69.7292 20.3582 70.3078 20.3582C70.8746 20.3582 71.3195 20.0949 71.6405 19.5698C71.9141 19.1344 72.052 18.6167 72.052 18.02Z" fill="white"/>
<path d="M78.4176 16.0539C78.2707 16.0275 78.114 16.014 77.9497 16.014C77.4274 16.014 77.0236 16.2051 76.7395 16.5878C76.4923 16.9253 76.3684 17.3519 76.3684 17.8669V21.2655H74.8845L74.8985 16.8281C74.8985 16.0815 74.8797 15.4018 74.8428 14.7889H76.1358L76.1901 16.0282H76.2312C76.3879 15.6023 76.635 15.2594 76.9734 15.0022C77.3042 14.7707 77.6614 14.6553 78.0464 14.6553C78.1836 14.6553 78.3076 14.6647 78.4176 14.6816V16.0539Z" fill="white"/>
<path d="M85.0568 17.7204C85.0568 17.9782 85.0394 18.1956 85.0025 18.3731H80.549C80.5664 19.013 80.7815 19.5024 81.1951 19.8399C81.5704 20.1416 82.0558 20.2928 82.6518 20.2928C83.3112 20.2928 83.9128 20.1909 84.4538 19.9864L84.6864 20.9854C84.0541 21.2527 83.3077 21.3856 82.4464 21.3856C81.4103 21.3856 80.597 21.09 80.0052 20.4994C79.4147 19.9087 79.1188 19.1156 79.1188 18.1207C79.1188 17.1439 79.3938 16.3306 79.9446 15.6819C80.5211 14.9893 81.3003 14.6431 82.2807 14.6431C83.2436 14.6431 83.9726 14.9893 84.4677 15.6819C84.8597 16.232 85.0568 16.9124 85.0568 17.7204ZM83.6412 17.3471C83.651 16.9205 83.5542 16.552 83.3529 16.2408C83.096 15.8405 82.7012 15.6407 82.1699 15.6407C81.6846 15.6407 81.2898 15.8358 80.9883 16.2273C80.7411 16.5385 80.5942 16.9117 80.549 17.3464H83.6412V17.3471Z" fill="white"/>
<path d="M34.1534 6.75612C34.1534 7.55059 33.9076 8.14864 33.4167 8.55027C32.962 8.92084 32.3159 9.10647 31.4789 9.10647C31.0639 9.10647 30.7088 9.08892 30.4115 9.05382V4.71289C30.7993 4.65214 31.2171 4.62109 31.6683 4.62109C32.4656 4.62109 33.0665 4.78917 33.4717 5.12532C33.9257 5.50534 34.1534 6.04872 34.1534 6.75612ZM33.384 6.77569C33.384 6.26067 33.2433 5.86579 32.962 5.59039C32.6807 5.31567 32.2699 5.17797 31.7289 5.17797C31.4991 5.17797 31.3035 5.19282 31.1412 5.22387V8.52394C31.231 8.53744 31.3954 8.54352 31.6342 8.54352C32.1926 8.54352 32.6236 8.39299 32.9272 8.09194C33.2308 7.79089 33.384 7.35214 33.384 6.77569Z" fill="white"/>
<path d="M38.2329 7.44976C38.2329 7.93914 38.0887 8.34009 37.8005 8.65464C37.4983 8.97796 37.0979 9.13929 36.598 9.13929C36.1161 9.13929 35.7325 8.98471 35.4463 8.67421C35.1608 8.36439 35.0181 7.97356 35.0181 7.50241C35.0181 7.00966 35.165 6.60534 35.4602 6.29146C35.7554 5.97759 36.1523 5.82031 36.6523 5.82031C37.1341 5.82031 37.5213 5.97489 37.8144 6.28471C38.0929 6.58576 38.2329 6.97456 38.2329 7.44976ZM37.476 7.47271C37.476 7.17909 37.4105 6.92731 37.2803 6.71739C37.1272 6.46359 36.9092 6.33669 36.6258 6.33669C36.3327 6.33669 36.1099 6.46359 35.9567 6.71739C35.8258 6.92731 35.761 7.18314 35.761 7.48554C35.761 7.77916 35.8265 8.03094 35.9567 8.24086C36.1147 8.49466 36.3348 8.62156 36.6189 8.62156C36.8974 8.62156 37.116 8.49264 37.2734 8.23411C37.4085 8.02014 37.476 7.76634 37.476 7.47271Z" fill="white"/>
<path d="M43.7031 5.88525L42.6761 9.0672H42.0076L41.5822 7.68548C41.4742 7.34055 41.3865 6.99765 41.3183 6.65745H41.305C41.2417 7.0071 41.1539 7.34933 41.0411 7.68548L40.5893 9.0672H39.9131L38.9474 5.88525H39.6973L40.0684 7.39793C40.1582 7.75568 40.2321 8.09655 40.2912 8.4192H40.3045C40.3588 8.15325 40.4486 7.8144 40.5753 7.40468L41.0411 5.88593H41.6358L42.0821 7.37228C42.19 7.73475 42.2778 8.08373 42.3453 8.41988H42.3655C42.4149 8.0925 42.4894 7.74353 42.5883 7.37228L42.9866 5.88593H43.7031V5.88525Z" fill="white"/>
<path d="M47.486 9.06714H46.7563V7.24463C46.7563 6.68303 46.5362 6.40223 46.0948 6.40223C45.8782 6.40223 45.7035 6.47918 45.5677 6.63376C45.4333 6.78833 45.3651 6.97058 45.3651 7.17916V9.06646H44.6353V6.79441C44.6353 6.51496 44.6263 6.21188 44.6089 5.88383H45.2502L45.2843 6.38131H45.3045C45.3894 6.22673 45.5162 6.09916 45.6826 5.99723C45.8803 5.87843 46.1017 5.81836 46.3441 5.81836C46.6504 5.81836 46.9053 5.91421 47.1079 6.10658C47.3599 6.34216 47.486 6.69383 47.486 7.16094V9.06714V9.06714Z" fill="white"/>
<path d="M49.4982 9.06727H48.7692V4.42529H49.4982V9.06727Z" fill="white"/>
<path d="M53.7945 7.44976C53.7945 7.93914 53.6504 8.34009 53.3621 8.65464C53.0599 8.97796 52.6589 9.13929 52.1596 9.13929C51.6771 9.13929 51.2934 8.98471 51.0079 8.67421C50.7225 8.36439 50.5797 7.97356 50.5797 7.50241C50.5797 7.00966 50.7266 6.60534 51.0219 6.29146C51.3171 5.97759 51.714 5.82031 52.2132 5.82031C52.6958 5.82031 53.0822 5.97489 53.376 6.28471C53.6546 6.58576 53.7945 6.97456 53.7945 7.44976ZM53.0369 7.47271C53.0369 7.17909 52.9715 6.92731 52.8413 6.71739C52.6888 6.46359 52.4702 6.33669 52.1875 6.33669C51.8936 6.33669 51.6708 6.46359 51.5183 6.71739C51.3874 6.92731 51.3227 7.18314 51.3227 7.48554C51.3227 7.77916 51.3881 8.03094 51.5183 8.24086C51.6764 8.49466 51.8964 8.62156 52.1805 8.62156C52.459 8.62156 52.677 8.49264 52.8343 8.23411C52.9701 8.02014 53.0369 7.76634 53.0369 7.47271Z" fill="white"/>
<path d="M57.3261 9.06706H56.6709L56.6166 8.70054H56.5964C56.3722 8.99281 56.0526 9.13929 55.6376 9.13929C55.3278 9.13929 55.0771 9.04276 54.8884 8.85106C54.7171 8.67691 54.6315 8.46024 54.6315 8.20306C54.6315 7.81426 54.7986 7.51794 55.1349 7.31274C55.4705 7.10754 55.9426 7.00696 56.5505 7.01169V6.95229C56.5505 6.53311 56.3235 6.32386 55.8688 6.32386C55.545 6.32386 55.2595 6.40284 55.013 6.55944L54.8647 6.09504C55.1697 5.91211 55.5464 5.82031 55.9906 5.82031C56.8485 5.82031 57.2788 6.25906 57.2788 7.13656V8.30836C57.2788 8.62629 57.2948 8.87941 57.3261 9.06706ZM56.5686 7.97356V7.48284C55.7636 7.46934 55.3612 7.68331 55.3612 8.12409C55.3612 8.29014 55.4071 8.41434 55.5011 8.49736C55.5951 8.58039 55.7149 8.62156 55.8576 8.62156C56.0178 8.62156 56.1675 8.57229 56.304 8.47441C56.4411 8.37586 56.5254 8.25099 56.5567 8.09776C56.5644 8.06334 56.5686 8.02149 56.5686 7.97356Z" fill="white"/>
<path d="M61.4726 9.06727H60.825L60.7909 8.55629H60.7707C60.5639 8.94509 60.2116 9.13949 59.7165 9.13949C59.321 9.13949 58.9917 8.98897 58.7305 8.68792C58.4694 8.38687 58.3392 7.99604 58.3392 7.51612C58.3392 7.00109 58.4806 6.58394 58.7647 6.26534C59.0397 5.96834 59.3767 5.81984 59.7778 5.81984C60.2185 5.81984 60.527 5.96362 60.7025 6.25184H60.7164V4.42529H61.4468V8.21002C61.4468 8.51984 61.4552 8.80537 61.4726 9.06727ZM60.7164 7.72537V7.19482C60.7164 7.10302 60.7094 7.02877 60.6962 6.97207C60.6551 6.80197 60.5667 6.65887 60.4323 6.54344C60.2965 6.42802 60.1329 6.36997 59.9442 6.36997C59.6719 6.36997 59.4589 6.47459 59.3022 6.68452C59.1469 6.89444 59.0683 7.16242 59.0683 7.48979C59.0683 7.80434 59.1428 8.05949 59.2925 8.25592C59.4505 8.46517 59.6636 8.56979 59.9303 8.56979C60.1698 8.56979 60.3613 8.48272 60.5068 8.30789C60.6475 8.14657 60.7164 7.95217 60.7164 7.72537Z" fill="white"/>
<path d="M67.7135 7.44976C67.7135 7.93914 67.5693 8.34009 67.2811 8.65464C66.9789 8.97796 66.5792 9.13929 66.0786 9.13929C65.5974 9.13929 65.2138 8.98471 64.9269 8.67421C64.6414 8.36439 64.4987 7.97356 64.4987 7.50241C64.4987 7.00966 64.6456 6.60534 64.9408 6.29146C65.236 5.97759 65.6329 5.82031 66.1336 5.82031C66.6147 5.82031 67.0025 5.97489 67.295 6.28471C67.5735 6.58576 67.7135 6.97456 67.7135 7.44976ZM66.9573 7.47271C66.9573 7.17909 66.8918 6.92731 66.7616 6.71739C66.6077 6.46359 66.3905 6.33669 66.1064 6.33669C65.814 6.33669 65.5911 6.46359 65.4373 6.71739C65.3064 6.92731 65.2416 7.18314 65.2416 7.48554C65.2416 7.77916 65.3071 8.03094 65.4373 8.24086C65.5953 8.49466 65.8154 8.62156 66.0994 8.62156C66.378 8.62156 66.5973 8.49264 66.7547 8.23411C66.889 8.02014 66.9573 7.76634 66.9573 7.47271Z" fill="white"/>
<path d="M71.637 9.06714H70.908V7.24463C70.908 6.68303 70.688 6.40223 70.2458 6.40223C70.0293 6.40223 69.8545 6.47918 69.7194 6.63376C69.5843 6.78833 69.5168 6.97058 69.5168 7.17916V9.06646H68.7864V6.79441C68.7864 6.51496 68.778 6.21188 68.7606 5.88383H69.4012L69.4353 6.38131H69.4555C69.5412 6.22673 69.6679 6.09916 69.8336 5.99723C70.0321 5.87843 70.2528 5.81836 70.4958 5.81836C70.8015 5.81836 71.0563 5.91421 71.2589 6.10658C71.5117 6.34216 71.637 6.69383 71.637 7.16094V9.06714V9.06714Z" fill="white"/>
<path d="M76.548 6.4151H75.7445V7.96085C75.7445 8.3537 75.8872 8.55012 76.1699 8.55012C76.3008 8.55012 76.4095 8.53932 76.4951 8.51705L76.5139 9.05367C76.3698 9.10632 76.1804 9.13265 75.9471 9.13265C75.6588 9.13265 75.4346 9.0476 75.2724 8.8775C75.1095 8.7074 75.0287 8.4212 75.0287 8.01957V6.4151H74.549V5.88522H75.0287V5.30202L75.7438 5.09277V5.88455H76.5473V6.4151H76.548Z" fill="white"/>
<path d="M80.411 9.06727H79.6805V7.25827C79.6805 6.68789 79.4605 6.40237 79.0197 6.40237C78.6813 6.40237 78.4502 6.56774 78.3234 6.89849C78.3019 6.96802 78.2893 7.05307 78.2893 7.15297V9.06659H77.5603V4.42529H78.2893V6.34297H78.3033C78.533 5.99399 78.8624 5.81984 79.2892 5.81984C79.5914 5.81984 79.8414 5.91569 80.0398 6.10807C80.287 6.34769 80.411 6.70409 80.411 7.17524V9.06727V9.06727Z" fill="white"/>
<path d="M84.396 7.32578C84.396 7.45268 84.3862 7.55933 84.3688 7.6464H82.1803C82.1901 7.96095 82.2945 8.20058 82.4972 8.36663C82.6824 8.51513 82.9212 8.58938 83.2137 8.58938C83.5374 8.58938 83.8327 8.53943 84.0986 8.43885L84.2128 8.93025C83.9016 9.0612 83.5353 9.12668 83.1113 9.12668C82.603 9.12668 82.2026 8.98155 81.913 8.6913C81.6219 8.40105 81.4778 8.01158 81.4778 7.52288C81.4778 7.04295 81.6122 6.64335 81.883 6.32475C82.1657 5.98455 82.548 5.81445 83.0305 5.81445C83.5026 5.81445 83.8612 5.98455 84.1035 6.32475C84.2992 6.59475 84.396 6.92888 84.396 7.32578ZM83.6997 7.14285C83.7052 6.93293 83.6572 6.75203 83.5583 6.59948C83.4316 6.40305 83.2387 6.3045 82.9776 6.3045C82.7395 6.3045 82.5452 6.40035 82.3969 6.59273C82.2757 6.74595 82.204 6.92888 82.1803 7.14285H83.6997Z" fill="white"/>
</svg>
