<svg width="35" height="35" viewBox="0 0 35 35" fill="none" xmlns="http://www.w3.org/2000/svg">
<path fill-rule="evenodd" clip-rule="evenodd" d="M17.9891 1.98758C26.8256 1.98758 33.9891 9.15106 33.9891 17.9874C33.9891 26.8241 26.8256 33.9876 17.9891 33.9876C9.15254 33.9876 1.98912 26.8241 1.98912 17.9874C1.98912 9.15106 9.15254 1.98758 17.9891 1.98758Z" fill="#070716"/>
<g clip-path="url(#clip0)">
<path d="M20.3286 11.9887H21.9474V9.12675C21.6681 9.08775 20.7076 9 19.589 9C17.255 9 15.6561 10.4902 15.6561 13.2292V15.75H13.0805V18.9495H15.6561V27H18.8139V18.9503H21.2854L21.6777 15.7508H18.8132V13.5465C18.8139 12.6217 19.0592 11.9887 20.3286 11.9887Z" fill="white"/>
</g>
<defs>
<clipPath id="clip0">
<rect width="17.7323" height="18" fill="white" transform="translate(8.50923 9)"/>
</clipPath>
</defs>
</svg>
