<svg width="94" height="27" viewBox="0 0 94 27" fill="none" xmlns="http://www.w3.org/2000/svg">
<path d="M90.5185 27H3.48148C1.56754 27 0 25.4804 0 23.625V3.375C0 1.5196 1.56754 1.42693e-06 3.48148 1.42693e-06H90.5185C92.4325 1.42693e-06 94 1.5196 94 3.375V23.625C94 25.4804 92.4325 27 90.5185 27Z" fill="black"/>
<path d="M90.5185 0.540844C92.1304 0.540844 93.4421 1.81238 93.4421 3.375V23.625C93.4421 25.1876 92.1304 26.4592 90.5185 26.4592H3.48148C1.86956 26.4592 0.557907 25.1876 0.557907 23.625V3.375C0.557907 1.81238 1.86956 0.540844 3.48148 0.540844H90.5185ZM90.5185 1.42693e-06H3.48148C1.56754 1.42693e-06 0 1.5196 0 3.375V23.625C0 25.4804 1.56754 27 3.48148 27H90.5185C92.4325 27 94 25.4804 94 23.625V3.375C94 1.5196 92.4325 1.42693e-06 90.5185 1.42693e-06Z" fill="#A6A6A6"/>
<path d="M33.0166 6.91444C33.0166 7.47807 32.8425 7.92948 32.4996 8.26613C32.1053 8.66523 31.5918 8.86604 30.9625 8.86604C30.3611 8.86604 29.8476 8.66185 29.4263 8.25938C29.0042 7.85101 28.7936 7.34982 28.7936 6.74991C28.7936 6.15001 29.0042 5.64882 29.4263 5.24382C29.8476 4.83798 30.3611 4.63379 30.9625 4.63379C31.262 4.63379 31.5474 4.6937 31.8199 4.80507C32.0914 4.91729 32.3125 5.06916 32.4726 5.25648L32.1088 5.61254C31.8294 5.29276 31.4491 5.13498 30.9625 5.13498C30.5239 5.13498 30.1435 5.28348 29.8206 5.58301C29.5012 5.88338 29.341 6.27235 29.341 6.74991C29.341 7.22748 29.5012 7.61982 29.8206 7.92019C30.1435 8.21635 30.5239 8.36823 30.9625 8.36823C31.4282 8.36823 31.8199 8.21635 32.1288 7.91682C32.3325 7.71854 32.4483 7.44516 32.4787 7.09585H30.9625V6.60816H32.9853C33.0097 6.71363 33.0166 6.81573 33.0166 6.91444V6.91444Z" fill="white" stroke="white" stroke-width="0.16" stroke-miterlimit="10"/>
<path d="M36.2258 5.22353H34.3257V6.50603H36.0386V6.99372H34.3257V8.27622H36.2258V8.77319H33.7878V4.72656H36.2258V5.22353Z" fill="white" stroke="white" stroke-width="0.16" stroke-miterlimit="10"/>
<path d="M38.4904 8.77319H37.9525V5.22353H36.7871V4.72656H39.6567V5.22353H38.4904V8.77319V8.77319Z" fill="white" stroke="white" stroke-width="0.16" stroke-miterlimit="10"/>
<path d="M41.7334 8.77319V4.72656H42.2704V8.77319H41.7334Z" fill="white" stroke="white" stroke-width="0.16" stroke-miterlimit="10"/>
<path d="M44.6509 8.77319H44.1174V5.22353H42.9476V4.72656H45.8207V5.22353H44.6509V8.77319Z" fill="white" stroke="white" stroke-width="0.16" stroke-miterlimit="10"/>
<path d="M51.2534 8.25263C50.8417 8.66185 50.3317 8.86604 49.7233 8.86604C49.1114 8.86604 48.6014 8.66185 48.1897 8.25263C47.7789 7.84426 47.5743 7.34307 47.5743 6.74991C47.5743 6.15676 47.7789 5.65557 48.1897 5.2472C48.6014 4.83798 49.1114 4.63379 49.7233 4.63379C50.3282 4.63379 50.8382 4.83798 51.2499 5.25057C51.6642 5.66232 51.8688 6.16013 51.8688 6.74991C51.8688 7.34307 51.6642 7.84426 51.2534 8.25263ZM48.5875 7.91344C48.8973 8.21635 49.2742 8.36823 49.7233 8.36823C50.1689 8.36823 50.5493 8.21635 50.8556 7.91344C51.1646 7.61054 51.3213 7.22157 51.3213 6.74991C51.3213 6.27826 51.1646 5.88929 50.8556 5.58638C50.5493 5.28348 50.1689 5.1316 49.7233 5.1316C49.2742 5.1316 48.8973 5.28348 48.5875 5.58638C48.2785 5.88929 48.1218 6.27826 48.1218 6.74991C48.1218 7.22157 48.2785 7.61054 48.5875 7.91344V7.91344Z" fill="white" stroke="white" stroke-width="0.16" stroke-miterlimit="10"/>
<path d="M52.6235 8.77319V4.72656H53.2763L55.306 7.87375H55.3295L55.306 7.09581V4.72656H55.843V8.77319H55.2825L53.1571 5.47075H53.1336L53.1571 6.25206V8.77319H52.6235V8.77319Z" fill="white" stroke="white" stroke-width="0.16" stroke-miterlimit="10"/>
<path d="M47.4422 14.6831C45.8068 14.6831 44.4707 15.8896 44.4707 17.5543C44.4707 19.2056 45.8068 20.4248 47.4422 20.4248C49.0811 20.4248 50.4171 19.2056 50.4171 17.5543C50.4171 15.8896 49.0811 14.6831 47.4422 14.6831ZM47.4422 19.2942C46.5448 19.2942 45.7728 18.5761 45.7728 17.5543C45.7728 16.5191 46.5448 15.8137 47.4422 15.8137C48.3395 15.8137 49.115 16.5191 49.115 17.5543C49.115 18.5761 48.3395 19.2942 47.4422 19.2942V19.2942ZM40.9588 14.6831C39.3199 14.6831 37.9874 15.8896 37.9874 17.5543C37.9874 19.2056 39.3199 20.4248 40.9588 20.4248C42.5968 20.4248 43.9302 19.2056 43.9302 17.5543C43.9302 15.8896 42.5968 14.6831 40.9588 14.6831ZM40.9588 19.2942C40.0606 19.2942 39.286 18.5761 39.286 17.5543C39.286 16.5191 40.0606 15.8137 40.9588 15.8137C41.8562 15.8137 42.6282 16.5191 42.6282 17.5543C42.6282 18.5761 41.8562 19.2942 40.9588 19.2942ZM33.2438 15.5631V16.7832H36.2492C36.1613 17.4649 35.9263 17.9661 35.566 18.3154C35.1273 18.7373 34.4441 19.2056 33.2438 19.2056C31.3943 19.2056 29.946 17.7585 29.946 15.9656C29.946 14.1726 31.3943 12.7256 33.2438 12.7256C34.2439 12.7256 34.9715 13.1044 35.5085 13.5955L36.3955 12.7357C35.6443 12.0404 34.6451 11.5064 33.2438 11.5064C30.7076 11.5064 28.576 13.5069 28.576 15.9656C28.576 18.4243 30.7076 20.4248 33.2438 20.4248C34.6147 20.4248 35.6443 19.9894 36.4538 19.1727C37.2832 18.3686 37.5417 17.2379 37.5417 16.325C37.5417 16.0415 37.5174 15.7808 37.4738 15.5631H33.2438ZM64.7913 16.5089C64.5467 15.8668 63.7921 14.6831 62.255 14.6831C60.7319 14.6831 59.4637 15.8466 59.4637 17.5543C59.4637 19.1625 60.7188 20.4248 62.4012 20.4248C63.7616 20.4248 64.5467 19.6207 64.8696 19.1524L63.86 18.5002C63.5231 18.9778 63.0645 19.2942 62.4012 19.2942C61.7424 19.2942 61.2698 19.0014 60.9669 18.4243L64.9279 16.8355L64.7913 16.5089V16.5089ZM60.7528 17.4649C60.7188 16.3579 61.6397 15.7909 62.2994 15.7909C62.8164 15.7909 63.2551 16.0415 63.4013 16.4001L60.7528 17.4649V17.4649ZM57.5333 20.2501H58.8353V11.8126H57.5333V20.2501ZM55.4009 15.3226H55.3573C55.0649 14.9868 54.507 14.6831 53.8002 14.6831C52.3171 14.6831 50.9611 15.9453 50.9611 17.5636C50.9611 19.1727 52.3171 20.4248 53.8002 20.4248C54.507 20.4248 55.0649 20.1185 55.3573 19.7726H55.4009V20.1843C55.4009 21.282 54.7959 21.8718 53.8203 21.8718C53.0247 21.8718 52.5312 21.3149 52.3276 20.8467L51.1952 21.3048C51.5216 22.0659 52.3859 23.0024 53.8203 23.0024C55.3469 23.0024 56.635 22.1317 56.635 20.013V14.8577H55.4009V15.3226V15.3226ZM53.9117 19.2942C53.0143 19.2942 52.2632 18.566 52.2632 17.5636C52.2632 16.552 53.0143 15.8137 53.9117 15.8137C54.7959 15.8137 55.4931 16.552 55.4931 17.5636C55.4931 18.566 54.7959 19.2942 53.9117 19.2942V19.2942ZM70.8873 11.8126H67.7732V20.2501H69.0718V17.0532H70.8873C72.3296 17.0532 73.7439 16.0415 73.7439 14.4325C73.7439 12.8243 72.3261 11.8126 70.8873 11.8126V11.8126ZM70.9213 15.8795H69.0718V12.9863H70.9213C71.8909 12.9863 72.4444 13.7668 72.4444 14.4325C72.4444 15.0855 71.8909 15.8795 70.9213 15.8795ZM78.9487 14.667C78.0105 14.667 77.0348 15.0687 76.6335 15.9588L77.7859 16.4271C78.034 15.9588 78.49 15.8069 78.9722 15.8069C79.6459 15.8069 80.3291 16.1993 80.3396 16.892V16.9806C80.1046 16.849 79.6015 16.6541 78.9827 16.6541C77.7415 16.6541 76.4769 17.3164 76.4769 18.5525C76.4769 19.6831 77.4935 20.4113 78.6363 20.4113C79.5101 20.4113 79.9923 20.0291 80.2952 19.5844H80.3396V20.2366H81.5938V17C81.5938 15.504 80.4414 14.667 78.9487 14.667ZM78.792 19.2908C78.3673 19.2908 77.7755 19.0866 77.7755 18.5761C77.7755 17.9231 78.5135 17.6725 79.1524 17.6725C79.7242 17.6725 79.9923 17.7948 80.3396 17.956C80.2377 18.7373 79.544 19.2908 78.792 19.2908V19.2908ZM86.1632 14.8518L84.6705 18.5095H84.6261L83.083 14.8518H81.6825L84.0012 19.9633L82.6782 22.8075H84.0352L87.608 14.8518H86.1632V14.8518ZM74.4576 20.2501H75.7597V11.8126H74.4576V20.2501Z" fill="white"/>
<path d="M7.2659 5.08882C7.06136 5.29638 6.94299 5.61954 6.94299 6.03804V20.9657C6.94299 21.3842 7.06136 21.7073 7.2659 21.9149L7.31638 21.9604L15.9452 13.5989V13.4014L7.31638 5.03989L7.2659 5.08882Z" fill="url(#paint0_linear)"/>
<path d="M18.8183 16.3872L15.9452 13.5986V13.4012L18.8218 10.6126L18.8862 10.6489L22.2928 12.5279C23.265 13.0611 23.265 13.9386 22.2928 14.4753L18.8862 16.3509L18.8183 16.3872V16.3872Z" fill="url(#paint1_linear)"/>
<path d="M18.8862 16.3509L15.9452 13.4999L7.26587 21.9146C7.58878 22.2437 8.11535 22.2833 8.71416 21.9543L18.8862 16.3509" fill="url(#paint2_linear)"/>
<path d="M18.8862 10.649L8.71416 5.04563C8.11535 4.71994 7.58878 4.7596 7.26587 5.08866L15.9452 13.5L18.8862 10.649Z" fill="url(#paint3_linear)"/>
<defs>
<linearGradient id="paint0_linear" x1="15.1791" y1="21.1211" x2="3.85644" y2="9.44124" gradientUnits="userSpaceOnUse">
<stop stop-color="#00A0FF"/>
<stop offset="0.0066" stop-color="#00A1FF"/>
<stop offset="0.2601" stop-color="#00BEFF"/>
<stop offset="0.5122" stop-color="#00D2FF"/>
<stop offset="0.7604" stop-color="#00DFFF"/>
<stop offset="1" stop-color="#00E3FF"/>
</linearGradient>
<linearGradient id="paint1_linear" x1="23.5588" y1="13.4989" x2="6.71056" y2="13.4989" gradientUnits="userSpaceOnUse">
<stop stop-color="#FFE000"/>
<stop offset="0.4087" stop-color="#FFBD00"/>
<stop offset="0.7754" stop-color="#FFA500"/>
<stop offset="1" stop-color="#FF9C00"/>
</linearGradient>
<linearGradient id="paint2_linear" x1="17.287" y1="11.95" x2="1.93252" y2="-3.88885" gradientUnits="userSpaceOnUse">
<stop stop-color="#FF3A44"/>
<stop offset="1" stop-color="#C31162"/>
</linearGradient>
<linearGradient id="paint3_linear" x1="5.0811" y1="26.8811" x2="11.9375" y2="19.8084" gradientUnits="userSpaceOnUse">
<stop stop-color="#32A071"/>
<stop offset="0.0685" stop-color="#2DA771"/>
<stop offset="0.4762" stop-color="#15CF74"/>
<stop offset="0.8009" stop-color="#06E775"/>
<stop offset="1" stop-color="#00F076"/>
</linearGradient>
</defs>
</svg>
