<svg width="35" height="35" viewBox="0 0 35 35" fill="none" xmlns="http://www.w3.org/2000/svg">
<path fill-rule="evenodd" clip-rule="evenodd" d="M17.9891 1.98758C26.8257 1.98758 33.9891 9.15106 33.9891 17.9874C33.9891 26.8241 26.8257 33.9876 17.9891 33.9876C9.15257 33.9876 1.98912 26.8241 1.98912 17.9874C1.98912 9.15106 9.15257 1.98758 17.9891 1.98758Z" fill="#070716"/>
<path d="M23.6 11H12.4C11.63 11 11 11.63 11 12.4V23.6C11 24.37 11.63 25 12.4 25H23.6C24.37 25 25 24.37 25 23.6V12.4C25 11.63 24.37 11 23.6 11ZM15.2 22.9H13.1V16.6H15.2V22.9ZM14.15 15.41C13.45 15.41 12.89 14.85 12.89 14.15C12.89 13.45 13.45 12.89 14.15 12.89C14.85 12.89 15.41 13.45 15.41 14.15C15.41 14.85 14.85 15.41 14.15 15.41ZM22.9 22.9H20.8V19.19C20.8 18.63 20.31 18.14 19.75 18.14C19.19 18.14 18.7 18.63 18.7 19.19V22.9H16.6V16.6H18.7V17.44C19.05 16.88 19.82 16.46 20.45 16.46C21.78 16.46 22.9 17.58 22.9 18.91V22.9Z" fill="white"/>
</svg>
