<svg width="35" height="35" viewBox="0 0 35 35" fill="none" xmlns="http://www.w3.org/2000/svg">
<path fill-rule="evenodd" clip-rule="evenodd" d="M17.9891 1.98758C26.8256 1.98758 33.989 9.15106 33.989 17.9874C33.989 26.8241 26.8256 33.9876 17.9891 33.9876C9.1525 33.9876 1.98905 26.8241 1.98905 17.9874C1.98905 9.15106 9.1525 1.98758 17.9891 1.98758Z" fill="#070716"/>
<g clip-path="url(#clip0)">
<path d="M28 11.7988C27.2563 12.125 26.4637 12.3412 25.6375 12.4462C26.4875 11.9388 27.1363 11.1412 27.4412 10.18C26.6488 10.6525 25.7738 10.9863 24.8412 11.1725C24.0887 10.3713 23.0162 9.875 21.8462 9.875C19.5763 9.875 17.7487 11.7175 17.7487 13.9763C17.7487 14.3012 17.7762 14.6137 17.8438 14.9112C14.435 14.745 11.4188 13.1113 9.3925 10.6225C9.03875 11.2363 8.83125 11.9388 8.83125 12.695C8.83125 14.115 9.5625 15.3737 10.6525 16.1025C9.99375 16.09 9.3475 15.8988 8.8 15.5975C8.8 15.61 8.8 15.6262 8.8 15.6425C8.8 17.635 10.2212 19.29 12.085 19.6712C11.7512 19.7625 11.3875 19.8062 11.01 19.8062C10.7475 19.8062 10.4825 19.7913 10.2337 19.7362C10.765 21.36 12.2725 22.5538 14.065 22.5925C12.67 23.6838 10.8988 24.3412 8.98125 24.3412C8.645 24.3412 8.3225 24.3263 8 24.285C9.81625 25.4563 11.9688 26.125 14.29 26.125C21.835 26.125 25.96 19.875 25.96 14.4575C25.96 14.2762 25.9538 14.1013 25.945 13.9275C26.7588 13.35 27.4425 12.6288 28 11.7988Z" fill="white"/>
</g>
<defs>
<clipPath id="clip0">
<rect width="20" height="20" fill="white" transform="translate(8 8)"/>
</clipPath>
</defs>
</svg>
